<svg width="154" height="37" viewBox="0 0 154 37" fill="none" xmlns="http://www.w3.org/2000/svg">
<path d="M53.8107 30.3521H49.3434V12.68H53.8107V30.3521ZM49.6467 9.82617C49.399 9.58283 49.2021 9.29257 49.0678 8.97233C48.9335 8.65209 48.8643 8.30829 48.8643 7.96101C48.8643 7.61373 48.9335 7.26993 49.0678 6.94969C49.2021 6.62945 49.399 6.33919 49.6467 6.09585C50.1856 5.61162 50.8845 5.34375 51.6089 5.34375C52.3334 5.34375 53.0323 5.61162 53.5711 6.09585C53.8182 6.3396 54.0143 6.63 54.1482 6.95019C54.2821 7.27037 54.351 7.61396 54.351 7.96101C54.351 8.30806 54.2821 8.65165 54.1482 8.97183C54.0143 9.29202 53.8182 9.58241 53.5711 9.82617C53.0314 10.3085 52.3328 10.5752 51.6089 10.5752C50.885 10.5752 50.1865 10.3085 49.6467 9.82617" fill="white"/>
<path d="M64.7497 16.3497V24.8961C64.7284 25.13 64.7557 25.3658 64.8298 25.5886C64.9039 25.8115 65.0233 26.0166 65.1804 26.1911C65.4837 26.455 65.9507 26.5884 66.6331 26.5884H68.7045V30.3521H65.9022C62.1375 30.3521 60.2551 28.5233 60.2551 24.8658V16.3497H58.1504V12.6801H60.2551V8.30981H64.7497V12.6801H76.3956V16.3497H64.7497Z" fill="white"/>
<path d="M76.3956 30.352H71.9313V12.68H76.3956V30.352ZM72.2346 9.8261C71.9868 9.58276 71.79 9.2925 71.6557 8.97226C71.5213 8.65202 71.4521 8.30822 71.4521 7.96094C71.4521 7.61366 71.5213 7.26986 71.6557 6.94962C71.79 6.62938 71.9868 6.33912 72.2346 6.09578C72.773 5.61177 73.4713 5.34399 74.1953 5.34399C74.9193 5.34399 75.6176 5.61177 76.156 6.09578C76.4038 6.33912 76.6006 6.62938 76.7349 6.94962C76.8693 7.26986 76.9384 7.61366 76.9384 7.96094C76.9384 8.30822 76.8693 8.65202 76.7349 8.97226C76.6006 9.2925 76.4038 9.58276 76.156 9.8261C75.6167 10.3082 74.9187 10.5748 74.1953 10.5748C73.4719 10.5748 72.7739 10.3082 72.2346 9.8261Z" fill="white"/>
<path d="M80.7665 16.7165C81.4736 15.3818 82.5453 14.2753 83.8569 13.526C85.2459 12.7517 86.8161 12.3613 88.4061 12.3948C90.5957 12.3948 92.4083 12.9417 93.8438 14.0356C95.2794 15.1294 96.2367 16.668 96.7159 18.6515H91.8998C91.672 17.9287 91.2194 17.2975 90.6079 16.85C89.9471 16.3967 89.1584 16.1671 88.3575 16.1949C87.7784 16.1713 87.2018 16.2849 86.6748 16.5262C86.1478 16.7676 85.6852 17.13 85.3248 17.5839C84.5787 18.5079 84.2067 19.8221 84.2087 21.5265C84.2107 23.231 84.5827 24.533 85.3248 25.4328C85.6852 25.8867 86.1478 26.2491 86.6748 26.4904C87.2018 26.7318 87.7784 26.8453 88.3575 26.8218C90.1651 26.8218 91.3458 26.013 91.8998 24.3956H96.7159C96.2916 26.1969 95.2683 27.8008 93.8135 28.9447C92.3659 30.0729 90.5583 30.637 88.3909 30.637C86.8061 30.6677 85.2415 30.2773 83.8569 29.5058C82.5437 28.759 81.4706 27.6533 80.7634 26.3183C80.0292 24.8244 79.6475 23.182 79.6475 21.5174C79.6475 19.8529 80.0292 18.2104 80.7634 16.7165" fill="white"/>
<path d="M110.463 30.3522L104.464 22.8249V30.3522H100V6.74805H104.464V20.1772L110.396 12.6802H116.204L108.422 21.548L116.268 30.3522H110.463Z" fill="white"/>
<path d="M130.428 19.8647C130.438 19.3413 130.332 18.8223 130.117 18.345C129.902 17.8678 129.583 17.4442 129.185 17.1049C128.357 16.4059 127.301 16.0366 126.219 16.0677C125.195 16.0386 124.199 16.3972 123.428 17.0715C122.641 17.8029 122.148 18.7958 122.039 19.8647H130.428ZM134.926 22.8611H122.009C122.116 24.1389 122.563 25.1387 123.35 25.8605C124.139 26.5865 125.18 26.976 126.252 26.9463C127.908 26.9463 129.088 26.2336 129.791 24.8082H134.607C134.112 26.488 133.082 27.9605 131.675 29.0025C130.229 30.0983 128.453 30.6463 126.346 30.6463C124.746 30.6703 123.168 30.2773 121.766 29.5059C120.427 28.7636 119.331 27.6505 118.609 26.3003C117.831 24.8282 117.441 23.1823 117.475 21.5176C117.438 19.8442 117.822 18.1883 118.591 16.7015C119.299 15.3555 120.386 14.2464 121.718 13.511C123.13 12.7833 124.694 12.4009 126.283 12.3951C127.871 12.3893 129.438 12.7603 130.856 13.4777C132.165 14.1808 133.241 15.2506 133.952 16.5559C134.704 17.9623 135.082 19.5381 135.05 21.1324C135.055 21.7091 135.012 22.2853 134.923 22.855" fill="white"/>
<path d="M143.505 16.3497V24.8961C143.484 25.13 143.511 25.3658 143.585 25.5886C143.659 25.8115 143.779 26.0166 143.936 26.1911C144.224 26.455 144.706 26.5884 145.389 26.5884H147.463V30.3521H144.655C140.89 30.3521 139.009 28.5233 139.011 24.8658V16.3497H136.888V12.6801H139.011V8.30981H143.505V12.6801H147.463V16.3497H143.505Z" fill="white"/>
<path d="M35.69 13.3109C35.4376 13.5832 35.1329 13.8019 34.7941 13.9537C34.4553 14.1055 34.0893 14.1874 33.7181 14.1945C33.3469 14.2016 32.9781 14.1337 32.6337 13.9949C32.2894 13.856 31.9766 13.6492 31.714 13.3867C31.4515 13.1241 31.2446 12.8113 31.1058 12.4669C30.967 12.1226 30.8991 11.7538 30.9062 11.3826C30.9133 11.0114 30.9952 10.6454 31.147 10.3066C31.2988 9.96775 31.5175 9.66306 31.7898 9.41072L27.7228 5.34375L10.1084 22.9582L15.6493 28.4991C17.4756 30.3253 19.9525 31.3513 22.5352 31.3513C25.118 31.3513 27.5949 30.3253 29.4212 28.4991L40.1512 17.7721L35.69 13.3109Z" fill="#EA582D"/>
<path d="M36.9118 21.0081C36.2255 21.2481 35.4877 21.3019 34.7738 21.1639C34.0599 21.0259 33.3954 20.7011 32.8479 20.2226L27.9348 15.9221L17.3473 5.34375L13.0832 9.60785C13.5309 10.1375 13.7629 10.8162 13.7334 11.509C13.7038 12.2019 13.4148 12.8583 12.9236 13.3479C12.4325 13.8376 11.7752 14.1246 11.0822 14.152C10.3892 14.1794 9.71132 13.9452 9.18304 13.4959L4.91895 17.7721L15.6489 28.4991C17.4752 30.3253 19.9522 31.3513 22.5349 31.3513C25.1176 31.3513 27.5946 30.3253 29.4208 28.4991L33.6485 24.2714L36.9118 21.0081Z" fill="#5BC3DF"/>
</svg>
