<svg width="12" height="20" viewBox="0 0 12 20" fill="none" xmlns="http://www.w3.org/2000/svg">
<path d="M1.2718 10.652H3.46412V19.6774C3.46412 19.8556 3.60851 20 3.7867 20H7.50387C7.68206 20 7.82645 19.8556 7.82645 19.6774V10.6945H10.3467C10.5106 10.6945 10.6484 10.5715 10.6672 10.4088L11.0499 7.08606C11.0604 6.99465 11.0315 6.9031 10.9703 6.83452C10.9091 6.76587 10.8215 6.72658 10.7295 6.72658H7.82657V4.64374C7.82657 4.01587 8.16464 3.69748 8.83148 3.69748C8.92651 3.69748 10.7295 3.69748 10.7295 3.69748C10.9077 3.69748 11.0521 3.55303 11.0521 3.3749V0.324968C11.0521 0.146774 10.9077 0.0023871 10.7295 0.0023871H8.11374C8.09528 0.00148387 8.05432 0 7.99393 0C7.54006 0 5.96245 0.0890967 4.71625 1.23555C3.33548 2.506 3.52741 4.02716 3.57328 4.2909V6.72652H1.2718C1.09361 6.72652 0.949219 6.8709 0.949219 7.0491V10.3294C0.949219 10.5075 1.09361 10.652 1.2718 10.652Z" fill="#B6B9D4"/>
</svg>
