<svg width="17" height="17" viewBox="0 0 17 17" fill="none" xmlns="http://www.w3.org/2000/svg">
<path opacity="0.4" d="M14.6058 5.9854C13.862 2.7129 11.0074 1.23956 8.49995 1.23956C8.49995 1.23956 8.49995 1.23956 8.49286 1.23956C5.99245 1.23956 3.13078 2.70581 2.38703 5.97831C1.55828 9.63331 3.79661 12.7287 5.82245 14.6766C6.57328 15.3991 7.53661 15.7604 8.49995 15.7604C9.46328 15.7604 10.4266 15.3991 11.1704 14.6766C13.1962 12.7287 15.4345 9.6404 14.6058 5.9854Z" fill="#B6B9D4"/>
<path d="M8.4998 9.53418C9.73209 9.53418 10.7311 8.53522 10.7311 7.30294C10.7311 6.07065 9.73209 5.07169 8.4998 5.07169C7.26752 5.07169 6.26855 6.07065 6.26855 7.30294C6.26855 8.53522 7.26752 9.53418 8.4998 9.53418Z" fill="#B6B9D4"/>
</svg>
