<svg width="20" height="22" viewBox="0 0 20 22" fill="none" xmlns="http://www.w3.org/2000/svg">
<path d="M17.5 9.33337C17.5 15.1667 10 20.1667 10 20.1667C10 20.1667 2.5 15.1667 2.5 9.33337C2.5 7.34425 3.29018 5.4366 4.6967 4.03007C6.10322 2.62355 8.01088 1.83337 10 1.83337C11.9891 1.83337 13.8968 2.62355 15.3033 4.03007C16.7098 5.4366 17.5 7.34425 17.5 9.33337Z" fill="#191A23" stroke="#191A23" stroke-width="2" stroke-linecap="round" stroke-linejoin="round"/>
<path d="M10.0003 12.6667C11.8413 12.6667 13.3337 11.1743 13.3337 9.33333C13.3337 7.49238 11.8413 6 10.0003 6C8.15938 6 6.66699 7.49238 6.66699 9.33333C6.66699 11.1743 8.15938 12.6667 10.0003 12.6667Z" fill="white"/>
</svg>
