<svg width="32" height="32" viewBox="0 0 32 32" fill="none" xmlns="http://www.w3.org/2000/svg">
<path d="M15.3337 29.0001C7.80032 29.0001 1.66699 22.8667 1.66699 15.3334C1.66699 7.80008 7.80032 1.66675 15.3337 1.66675C22.867 1.66675 29.0003 7.80008 29.0003 15.3334C29.0003 22.8667 22.867 29.0001 15.3337 29.0001ZM15.3337 3.66675C8.89366 3.66675 3.66699 8.90675 3.66699 15.3334C3.66699 21.7601 8.89366 27.0001 15.3337 27.0001C21.7737 27.0001 27.0003 21.7601 27.0003 15.3334C27.0003 8.90675 21.7737 3.66675 15.3337 3.66675Z" fill="#191A23" stroke="#191A23" stroke-width="1.39355"/>
<path d="M29.3342 30.3334C29.0809 30.3334 28.8276 30.24 28.6276 30.04L25.9609 27.3734C25.5742 26.9867 25.5742 26.3467 25.9609 25.96C26.3476 25.5734 26.9876 25.5734 27.3742 25.96L30.0409 28.6267C30.4276 29.0134 30.4276 29.6534 30.0409 30.04C29.8409 30.24 29.5876 30.3334 29.3342 30.3334Z" fill="#191A23" stroke="#191A23" stroke-width="1.39355"/>
</svg>
